<?xml version="1.0" encoding="utf-8"?>
<!-- Uploaded to: SVG Repo, www.svgrepo.com, Generator: SVG Repo Mixer Tools -->
<svg width="800px" height="800px" viewBox="0 -30.9 347.695 347.695" xmlns="http://www.w3.org/2000/svg"><defs><style>.a{fill:#ffffff;}.b{fill:#211715;}.c{fill:#d9d9d9;}.d{fill:#9fc3e4;}.e{fill:#3f88c9;}.f{fill:#957f6e;}</style></defs><path class="a" d="M341.723,283.967c0-2.759,0-52.673.011-57.382,0,0,0-.985.01-2.534h3.942c-.007-2.741,0-5.748.009-10.4,1.784,0-338.736,0-343.675-.017-.01,4.659-.015,7.668-.02,10.408.243,0,1.614,0,3.979,0-.008,5-.013,57.005-.008,59.755Z"/><path class="a" d="M31.227,205.694c0-3.335.033-14.341.033-15.2,9.157,0,87.1.109,99.967.109v14.8Z"/><path class="a" d="M92.569,179.594c0,.823,0,8.1.006,10.969l-22.987-.028c.006-3.549.006-10.3.006-10.81"/><path class="a" d="M37.143,115.5c0,5.614-.046,53.242.01,63.755.737-.021,72.171,0,87.868,0,0-8.521-.333-54.188-.333-63.53C124.168,115.727,42.925,115.5,37.143,115.5Z"/><path class="b" d="M35.143,115.5q0,10.517-.013,21.035-.008,15.607,0,31.216c0,3.835,0,7.67.024,11.5a2.025,2.025,0,0,0,2,2c8.59-.2,17.207-.009,25.8-.009q22.527,0,45.054.007l17.016,0a2.029,2.029,0,0,0,2-2c0-7.5-.067-14.993-.112-22.49q-.092-15.191-.18-30.382c-.018-3.552-.04-7.105-.041-10.658a2.03,2.03,0,0,0-2-2c-9.448-.006-18.9-.051-28.344-.076q-23.08-.063-46.161-.121c-4.347-.011-8.693-.028-13.04-.028-2.574,0-2.578,4,0,4,10.7,0,21.4.048,32.1.076l45.1.122c3.446.009,6.892.025,10.338.027l-2-2c0,7.692.066,15.383.112,23.075q.09,15.109.18,30.22c.018,3.411.04,6.823.041,10.235l2-2q-18.246,0-36.491-.006-21.021,0-42.04,0c-3.109,0-6.228-.065-9.337.008l2,2c-.043-8.176-.028-16.354-.028-24.53q0-15.123.013-30.245,0-4.489.005-8.98C39.143,112.928,35.143,112.924,35.143,115.5Z"/><path class="c" d="M46.526,126.534c.02,7.7.108,32.726.148,41.482a1.988,1.988,0,0,0,2,1.984c9.836-.048,52.991-.181,65.5-.2a1.988,1.988,0,0,0,1.99-2c-.025-8.7-.172-33.212-.2-41.15a1.988,1.988,0,0,0-1.989-1.985c-10.027-.021-55.032-.118-65.453-.135A1.992,1.992,0,0,0,46.526,126.534Z"/><path class="b" d="M343.723,283.967q-.017-9.633,0-19.266,0-14.714.006-29.428,0-4.344.007-8.688c.007-2.574-3.993-2.578-4,0q-.026,10.329-.01,20.658,0,14.52,0,29.04,0,3.841,0,7.684c0,2.574,4,2.578,4,0Z"/><path class="b" d="M.02,213.63q-.011,5.2-.02,10.408a2.029,2.029,0,0,0,2,2c3.391.01,6.781,0,10.172,0l25.333,0,37.114,0,44.677,0h48.957l49.374,0H331.064q6.928,0,13.857,0h.765a2.03,2.03,0,0,0,2-2c-.008-3.467,0-6.935.009-10.4l-2,2h.007c2.574-.009,2.579-3.994,0-4-3.033-.007-6.066,0-9.1,0H230.8l-49.07,0-49.665,0-46.338,0-39.451,0-28.909,0q-7.222,0-14.445,0h-.9c-2.574-.006-2.578,3.994,0,4,3.463.008,6.926,0,10.389,0q12.882,0,25.763,0l37.222,0,45.012,0,49.243,0h162.27c4.377,0,8.851.269,13.223,0,.185-.011.375,0,.56,0v-4H345.7a2.03,2.03,0,0,0-2,2c-.008,3.468-.017,6.936-.009,10.4l2-2q-4.916.007-9.83,0H180.4l-49.4,0H84.825l-39.228,0-28.562,0q-7.091,0-14.18,0H2l2,2q.01-5.2.02-10.408C4.026,211.056.026,211.052.02,213.63Z"/><path class="b" d="M33.227,205.694c0-5.067.03-10.134.033-15.2l-2,2q17.145,0,34.29.037,24.576.03,49.151.059,8.263.007,16.526.013l-2-2v14.8c0,2.574,4,2.578,4,0V190.6a2.029,2.029,0,0,0-2-2q-18.471,0-36.943-.037-24.2-.029-48.41-.058-7.308-.009-14.614-.014a2.029,2.029,0,0,0-2,2c0,5.067-.032,10.134-.033,15.2,0,2.574,4,2.578,4,0Z"/><path class="b" d="M67.594,179.725v10.162a2,2,0,0,0,4,0V179.725a2,2,0,0,0-4,0Z"/><path class="b" d="M90.569,179.594v10.293a2,2,0,0,0,4,0V179.594a2,2,0,0,0-4,0Z"/><path class="b" d="M7.971,283.8q-.017-10.062,0-20.125,0-15.378.006-30.757,0-4.466.007-8.93c.006-2.574-3.994-2.578-4,0-.018,7.172-.009,14.345-.011,21.517q0,15.183,0,30.366,0,3.965,0,7.929c0,2.574,4,2.578,4,0Z"/><path class="a" d="M232.566,93.135a41.6,41.6,0,0,1-.479-4.717c7.369-3.522,13.234-13.362,14.278-16.2.162-.489.49-1.409.782-2.5.392-.069.613-.1.613-.1a7.683,7.683,0,0,0,3.571-1.61,11.574,11.574,0,0,0,3-3.93,18.217,18.217,0,0,0,1.857-9.658,6.084,6.084,0,0,0-.636-2.446,4.3,4.3,0,0,0-3.092-2.056,4.553,4.553,0,0,0-3.644,1.066s2.611-25.264-31.234-25.264c-31.825,0-29.889,25.264-29.889,25.264a4.556,4.556,0,0,0-3.644-1.066,4.3,4.3,0,0,0-3.092,2.056,6.069,6.069,0,0,0-.637,2.446,18.218,18.218,0,0,0,1.858,9.658,11.571,11.571,0,0,0,2.994,3.93,7.683,7.683,0,0,0,3.571,1.61l1.164.177a30.986,30.986,0,0,0,5.905,11.529,26.158,26.158,0,0,0,9.561,7.481,38.138,38.138,0,0,1-.524,4.685s-7.114,8.111-4.36,10.159c2.889,2.148,8.222,5.185,18.666,5.185,10.815,0,15.778-3.926,18.3-5.629C240.362,101.231,232.566,93.135,232.566,93.135Z"/><path class="d" d="M260.7,204.806c-1.712-12.623-3.606-26.882-3.208-29.572,2.919-19.732,5.543-36.854,7.3-50.7l1.776-12.065.007-.039c-.982-.566-2.019-1-3.056-1.559a240,240,0,0,0-24.242-11.844l-.285-.118c-.865,3.033-4.415,11.625-5.4,13.73-1.332-1.64-13.887-9.1-14.069-9.481a1.126,1.126,0,0,1-.163-.8h-1.767a1.126,1.126,0,0,1-.163.8c-.182.378-12.737,7.841-14.069,9.481-.944-2.023-4.259-10.036-5.285-13.351l-.277.116a243.017,243.017,0,0,0-23.338,11.467c-1.043.567-2.208,1.088-3.267,1.712l.008.046,1.877,11.569c1.753,13.652,4.544,31.667,7.409,51.031.4,2.689-1.495,16.943-3.208,29.564Z"/><path class="e" d="M270.4,185.738a30.015,30.015,0,0,1-5.351-6.139c-1.224-2.166-4.044-8.125-4.763-11.72l-1.246-3.067c2.29-15.382,4.312-28.93,5.752-40.273l1.774-12.05,1.743.949a15.759,15.759,0,0,1,2.134,1.464c2.048,2.425,3.493,6.4,4.169,9,1.111,4.259,2.867,11.7,4.676,19.4a60.573,60.573,0,0,1,2.493,7.17l4.608.262L275.8,184.658Z"/><path class="e" d="M152.417,175.6c1.847.882,20.8,2.351,24.255,2.351h3.807a15.837,15.837,0,0,0,.007-2.718c-2.865-19.364-5.656-37.379-7.409-51.031,0,0-1.678-10.339-1.861-11.465l-1.288.7a15.823,15.823,0,0,0-2.134,1.464c-2.047,2.425-3.492,6.4-4.169,9-1.11,4.259-4.41,19.031-5.665,24.154-.809,3.3-3.948,17.879-5.459,23.409-.454,1.664-.924,3.886-.084,4.138"/><path class="a" d="M179.026,178.058l-2.354-.106c-2.329,0-11.686-.666-18.111-1.371l-.014.154c-.267,3.106-1.923,24.541-1.763,28.086h20.491c1.373-10.112,2.861-21.277,3.195-26.7Z"/><path class="a" d="M293,129.187c.883-1.783,2.031-3.542,2.509-4.67.661-1.558.217-4.184.684-5.8a21.131,21.131,0,0,1,4.69-8.594,92.384,92.384,0,0,1,7.883-8.247c1.258-1.192,2.525-2,4.1-.924,1.751,1.193,1.1,2.8.342,4.586-1.419,3.333-4.9,6.092-6,8.95,0,0-.066.171-.174.435,2.713-.58,10.5-1.925,11.971-2.258a18.507,18.507,0,0,0,3.811-1.792c2.574-1.209,5.449-3.044,8.239-3.595.76-.15,1.575.283,2.034.22,1.309-.843,4.015-.687,5.519-.278,5.373,2.483-.085,9.931-3.22,12.356-2.161,1.671-5.342,4.28-7.7,5.715a32.547,32.547,0,0,1-8.216,3.9,74.541,74.541,0,0,0-10.226,3.4c-1.8,1.249-3.86,2.492-4.958,6.083-2.077,10.778-4.041,31.469-6.071,38.326-2,6.759-2.733,11.961-8.974,15.874-3.4,2.13-6.5,3.072-10.193,1.114a11.44,11.44,0,0,1-5.907-12.552,52.707,52.707,0,0,1,3.8-11.779c3.335-6.873,12.78-33.162,15.89-40.1C292.877,129.429,292.936,129.308,293,129.187Z"/><path class="a" d="M252.846,135.706H237.425c0,1.117.025,5.673.025,7.02,2.574,0,13.459.025,15.4.025C252.846,140.888,252.827,135.928,252.846,135.706Z"/><path class="e" d="M233.59,112.644a150.713,150.713,0,0,0,5.487-14.064,24.136,24.136,0,0,0-4.912-6.637,48.835,48.835,0,0,1-14.1,9.824c-.292.132-.617.294-.711.6a1.126,1.126,0,0,0,.163.8C219.7,103.541,232.258,111,233.59,112.644Z"/><path class="e" d="M203.359,112.644a150.435,150.435,0,0,1-5.487-14.064,24.136,24.136,0,0,1,4.912-6.637,48.835,48.835,0,0,0,14.1,9.824c.292.132.617.294.711.6a1.126,1.126,0,0,1-.163.8C217.246,103.541,204.691,111,203.359,112.644Z"/><path class="b" d="M203.338,89.379q-.083,1.248-.248,2.489l.071-.531q-.11.811-.246,1.619a1.526,1.526,0,0,0-.036.8,1.477,1.477,0,0,0,.238.743,2,2,0,0,0,2.736.718,1.946,1.946,0,0,0,.919-1.2,46.689,46.689,0,0,0,.566-4.641,2,2,0,0,0-3.414-1.414,2.193,2.193,0,0,0-.586,1.414Z"/><path class="b" d="M230.093,88.6a48.411,48.411,0,0,0,.544,5.068,2,2,0,0,0,.919,1.2,2,2,0,0,0,2.737-.717l.2-.478a2,2,0,0,0,0-1.063q-.083-.531-.154-1.064l.071.532c-.152-1.153-.261-2.311-.318-3.473a2.107,2.107,0,0,0-.586-1.414,2,2,0,0,0-2.828,0,2,2,0,0,0-.586,1.414Z"/><path class="b" d="M179.207,205.33c1.013-7.467,2.06-14.936,2.843-22.432a55.086,55.086,0,0,0,.488-6.872,34.531,34.531,0,0,0-.56-4.267q-.485-3.266-.973-6.532c-1.216-8.136-2.442-16.27-3.625-24.41-.859-5.914-1.519-11.872-2.476-17.77L173.128,112.1a2.015,2.015,0,0,0-2.46-1.4,2.049,2.049,0,0,0-1.4,2.46l1.591,9.806c.09.552.184,1.1.269,1.656,0,.033.011.066.016.1-.066-.441.049.4.065.524q.163,1.257.332,2.514.709,5.3,1.471,10.6c1.131,7.889,2.314,15.77,3.493,23.652.637,4.255,1.26,8.513,1.9,12.768a23.2,23.2,0,0,1-.1,5.466c-.7,8.032-1.875,16.031-2.958,24.019a2.069,2.069,0,0,0,1.4,2.46,2.014,2.014,0,0,0,2.46-1.4Z"/><path class="b" d="M197.266,97.481q-7.522,3.168-14.79,6.878c-2.305,1.179-4.591,2.393-6.87,3.622a49.988,49.988,0,0,0-6.711,3.752,2.066,2.066,0,0,0-.718,2.736,2.014,2.014,0,0,0,2.737.718,47.19,47.19,0,0,1,6.322-3.542c2.282-1.234,4.572-2.453,6.879-3.638,4.656-2.392,9.389-4.636,14.214-6.669a2.067,2.067,0,0,0,1.4-2.46,2.012,2.012,0,0,0-2.46-1.4Z"/><path class="b" d="M238.74,100.961c4.86,2.021,9.63,4.249,14.319,6.637,2.2,1.121,4.385,2.275,6.561,3.444,2.37,1.274,5.045,2.34,7.192,3.962a2.012,2.012,0,0,0,2.737-.717,2.049,2.049,0,0,0-.718-2.736c-2.148-1.623-4.822-2.688-7.192-3.962-2.3-1.236-4.608-2.454-6.935-3.635q-7.319-3.712-14.9-6.85a2.012,2.012,0,0,0-2.46,1.4,2.051,2.051,0,0,0,1.4,2.46Z"/><path class="b" d="M267.3,115.165a5.691,5.691,0,0,1,2.491,2.235A22.794,22.794,0,0,1,272,122.186c1.024,3,1.667,6.143,2.409,9.218q.7,2.913,1.391,5.83c.512,2.164.836,4.492,1.554,6.595.776,2.273,1.88,4.688,2.494,7.17.617,2.5,4.475,1.44,3.857-1.063-.648-2.624-1.89-5.087-2.607-7.651-1.208-4.32-2.061-8.769-3.119-13.13a69.731,69.731,0,0,0-2.714-9.628,23.034,23.034,0,0,0-2.655-5.071,9.994,9.994,0,0,0-3.3-2.745c-2.239-1.277-4.257,2.178-2.018,3.454Z"/><path class="b" d="M168.919,111.711a11.939,11.939,0,0,0-2.539,1.777,14.53,14.53,0,0,0-2.5,3.944,36.556,36.556,0,0,0-2.449,7c-1.1,4.455-2.106,8.936-3.135,13.408q-2.8,12.179-5.6,24.358c-.56,2.433-1.125,4.866-1.743,7.285-.557,2.18-2.269,6.472.454,7.842,2.294,1.153,4.322-2.3,2.019-3.454,1.337.672.2.894.536.344.037-.061.112-.756.126-.821.112-.535.252-1.062.393-1.59q.327-1.227.63-2.459c.527-2.128,1.023-4.263,1.515-6.4.956-4.16,1.872-8.329,2.824-12.49q2.651-11.586,5.4-23.155a50.06,50.06,0,0,1,1.768-6.175,20.549,20.549,0,0,1,2.038-4.047,5.627,5.627,0,0,1,2.287-1.917c2.236-1.275.223-4.732-2.019-3.454Z"/><path class="b" d="M258.352,168.411a44.118,44.118,0,0,0,3.948,10.248,27.773,27.773,0,0,0,6.681,8.493,2.047,2.047,0,0,0,2.828,0,2.018,2.018,0,0,0,0-2.828,24.771,24.771,0,0,1-6.055-7.684,39.8,39.8,0,0,1-3.545-9.292,2,2,0,1,0-3.857,1.063Z"/><path class="b" d="M270.117,171.233q.481-.653.965-1.3l.46-.615.232-.305c.045-.059.349-.484.059-.08a28.48,28.48,0,0,1,1.988-2.4,25.447,25.447,0,0,1,2.207-2.187q.289-.252.586-.492c.008,0,.392-.3.161-.128s.123-.09.168-.123c.465-.34.945-.656,1.438-.954a2,2,0,1,0-2.019-3.454c-4.087,2.468-6.907,6.245-9.7,10.02a2.006,2.006,0,0,0,.718,2.736,2.058,2.058,0,0,0,2.736-.717Z"/><path class="b" d="M302.347,138.14c-1.8,9.407-2.724,18.966-4.16,28.431a87.146,87.146,0,0,1-2.222,10.968c-1.254,4.378-2.245,9-5.791,12.162-1.862,1.657-4.517,3.341-7.085,3.355a8.453,8.453,0,0,1-6.393-3.608c-3.209-4.394-1.3-10.007.3-14.64,1.132-3.28,2.711-6.395,4.024-9.606,1.52-3.715,2.962-7.46,4.4-11.207,1.772-4.619,3.521-9.246,5.3-13.863.745-1.934,1.494-3.868,2.261-5.793q.463-1.161.938-2.316c.047-.113.094-.226.142-.339.16-.385-.1.234.1-.233q.192-.447.389-.891a2.063,2.063,0,0,0-.718-2.737,2.015,2.015,0,0,0-2.736.718c-3.252,7.292-5.891,14.879-8.741,22.333-1.564,4.092-3.131,8.184-4.773,12.246-1.312,3.247-2.908,6.367-4.171,9.869-1.925,5.335-3.7,11.287-1.177,16.718,2.543,5.471,9.056,8.858,14.834,6.522a19.008,19.008,0,0,0,10.887-11.438,73.857,73.857,0,0,0,3.3-12.3c1.994-11.041,2.848-22.263,4.956-33.285.481-2.515-3.374-3.593-3.858-1.063Z"/><path class="b" d="M294.547,130.56c.764-1.576,1.73-3.045,2.493-4.62a10.617,10.617,0,0,0,.884-4.487,14.748,14.748,0,0,1,2.852-7.935,58.025,58.025,0,0,1,7.372-8.277q.928-.909,1.872-1.8c.371-.349.971-1.093,1.545-.944.416.107.474.256.4.589a9.288,9.288,0,0,1-.725,1.958c-1.6,3.245-4.565,5.545-5.967,8.915a2.012,2.012,0,0,0,1.4,2.46,2.05,2.05,0,0,0,2.46-1.4,19.153,19.153,0,0,1,2.984-4.177,20.764,20.764,0,0,0,3.06-4.867c.676-1.616,1.2-3.41.315-5.066a4.741,4.741,0,0,0-5.325-2.274c-1.942.58-3.442,2.405-4.841,3.775-1.584,1.551-3.126,3.145-4.588,4.811a28.826,28.826,0,0,0-6.044,9.608,12.79,12.79,0,0,0-.7,3.167c-.079.967,0,1.958-.132,2.919a5.975,5.975,0,0,1-.862,2.122c-.648,1.16-1.317,2.3-1.9,3.5-1.119,2.306,2.329,4.336,3.454,2.019Z"/><path class="b" d="M307.25,116.92c4.032-.9,8.156-1.373,12.179-2.3a17.672,17.672,0,0,0,4.03-1.84c1.652-.849,3.306-1.726,4.992-2.5a6.338,6.338,0,0,1,3.839-.849,3.743,3.743,0,0,0,2.08-.337,5.72,5.72,0,0,1,2.081-.184,2.548,2.548,0,0,1,2.226.869,2.942,2.942,0,0,1-.117,2.324,13.969,13.969,0,0,1-3.893,5.475,62.634,62.634,0,0,1-6.812,5.224,32.884,32.884,0,0,1-8.926,4.47c-1.789.537-3.594,1.016-5.376,1.575a26.7,26.7,0,0,0-5.328,2.022,12.858,12.858,0,0,0-5.878,7.278c-.8,2.454,3.064,3.505,3.858,1.063a8.116,8.116,0,0,1,3.161-4.278,19.938,19.938,0,0,1,5.848-2.412c2.3-.7,4.664-1.242,6.9-2.115a40.853,40.853,0,0,0,6.567-3.378,64.108,64.108,0,0,0,5.78-4.2,32.726,32.726,0,0,0,4.059-3.443c2.334-2.53,4.845-6.179,4.242-9.81-.773-4.651-7.07-5.856-10.7-3.789l1.009-.273a19.372,19.372,0,0,0-2.034-.22,9.263,9.263,0,0,0-2.333.585,36.974,36.974,0,0,0-4.45,2.037c-2.111,1.094-4.252,2.54-6.6,3-3.818.749-7.676,1.316-11.474,2.16-2.512.559-1.449,4.416,1.063,3.857Z"/><path class="b" d="M314.4,119.049c-.259.042-.518.079-.777.119-.31.048.322-.04.009,0l-.438.056c-.5.061-1,.118-1.5.178-1.173.141-2.349.285-3.506.522a13.106,13.106,0,0,0-6.122,2.918,2.012,2.012,0,0,0,0,2.829,2.048,2.048,0,0,0,2.828,0c.09-.079.181-.158.273-.235.131-.11.181-.121.017-.013.219-.145.431-.3.657-.432.2-.119.4-.229.607-.332.1-.052.21-.1.311-.149.264-.141-.284.1,0,0a16.842,16.842,0,0,1,2.841-.793c.463-.087.929-.156,1.395-.226.313-.046-.318.039,0,0l.353-.044c.264-.033.529-.064.794-.1,1.111-.13,2.222-.262,3.326-.442a2.007,2.007,0,0,0,1.4-2.46,2.058,2.058,0,0,0-2.46-1.4Z"/><path class="b" d="M330.312,108.193q-.516.525-1.077,1-.279.235-.566.46c.22-.173.09-.07-.057.039l-.272.2a29.228,29.228,0,0,1-2.774,1.752q-1.383.777-2.83,1.43c-.224.1-.449.2-.674.3s.318-.129-.037.015l-.289.117q-.685.275-1.383.516a2,2,0,1,0,1.064,3.857c4.2-1.46,8.575-3.647,11.723-6.854a2,2,0,0,0-2.828-2.828Z"/><path class="b" d="M333.907,110.847a7.9,7.9,0,0,1-1,.989c-.122.1-.247.2-.37.3-.341.283.371-.274,0,0-.255.188-.51.375-.769.556-1.16.809-2.371,1.546-3.6,2.249q-1.77,1.017-3.594,1.935-.719.361-1.447.7c-.179.082-.359.16-.538.242-.37.169.46-.181.165-.068-.077.029-.154.062-.231.092a2.046,2.046,0,0,0-1.4,2.46,2.023,2.023,0,0,0,2.46,1.4,48.147,48.147,0,0,0,6.6-3.306c1.266-.726,2.517-1.488,3.711-2.329a13.946,13.946,0,0,0,2.828-2.393,2.047,2.047,0,0,0,0-2.828,2.023,2.023,0,0,0-2.828,0Z"/><path class="b" d="M151.407,177.328a17,17,0,0,0,4.778.972c2.487.32,4.984.56,7.481.783,4.31.385,8.675.854,13.006.869,2.575.009,2.578-3.991,0-4-4.148-.014-8.328-.459-12.457-.821-2.467-.216-4.934-.45-7.392-.751-.832-.1-1.26-.15-2.261-.322-.3-.052-.607-.1-.907-.175-.237-.055-1.012-.358-.229-.009a2.062,2.062,0,0,0-2.736.717,2.015,2.015,0,0,0,.717,2.737Z"/><path class="b" d="M156.547,176.735c-.668,7.8-1.241,15.631-1.635,23.455-.078,1.538-.19,3.095-.128,4.637.1,2.565,4.1,2.578,4,0a97.736,97.736,0,0,1,.447-10.1q.435-6.791.965-13.573c.113-1.472.225-2.944.351-4.415.22-2.565-3.781-2.55-4,0Z"/><path class="b" d="M153.844,168.866c6.5.64,13.037,1.464,19.569,1.68,2.574.085,2.571-3.915,0-4-6.532-.216-13.068-1.04-19.569-1.68a2.014,2.014,0,0,0-2,2,2.044,2.044,0,0,0,2,2Z"/><path class="b" d="M216.092,102.717c0,4.118-.033,8.236-.054,12.354q-.06,11.905-.128,23.811l-.156,27.776q-.069,12.173-.136,24.344c-.024,4.384-.124,8.776-.065,13.16,0,.163,0,.327,0,.49,0,2.574,4,2.578,4,0,0-3.76.033-7.52.053-11.28q.063-11.628.129-23.257l.156-27.743q.069-12.417.136-24.835c.024-4.723.055-9.446.065-14.17q0-.324,0-.65c0-2.573-4-2.578-4,0Z"/><path class="b" d="M262.624,204.275c-1-7.387-2.042-14.777-2.785-22.195a40.739,40.739,0,0,1-.395-6.337c.093-1.619.457-3.25.695-4.856q.494-3.321.988-6.642c1.164-7.819,2.332-15.638,3.45-23.464q.765-5.355,1.487-10.716c.216-1.61.436-3.22.634-4.832.073-.586-.01.035.046-.354.034-.242.071-.484.107-.726l1.641-11.148a2.066,2.066,0,0,0-1.4-2.46,2.014,2.014,0,0,0-2.46,1.4c-1.255,8.523-2.4,17.057-3.6,25.587-1.112,7.86-2.282,15.713-3.45,23.565-.651,4.372-1.314,8.742-1.95,13.115a25.8,25.8,0,0,0,.035,6.04c.736,8.391,1.969,16.745,3.1,25.089a2.012,2.012,0,0,0,2.46,1.4,2.054,2.054,0,0,0,1.4-2.46Z"/><path class="b" d="M252.846,133.706H237.425a2.029,2.029,0,0,0-2,2c0,2.34.024,4.68.025,7.02a2.03,2.03,0,0,0,2,2c5.132,0,10.264.024,15.4.025a2.03,2.03,0,0,0,2-2c0-2.339-.132-4.711,0-7.045a2,2,0,0,0-4,0c-.132,2.334,0,4.706,0,7.045l2-2c-5.132,0-10.264-.025-15.4-.025l2,2c0-2.34-.024-4.68-.025-7.02l-2,2h15.421C255.42,137.706,255.424,133.706,252.846,133.706Z"/><path class="b" d="M235.317,113.654c1.57-3.386,2.944-6.885,4.264-10.375.321-.847.635-1.7.927-2.555a5.694,5.694,0,0,0,.533-2.41c-.187-1.384-1.471-2.965-2.267-4.081a24.686,24.686,0,0,0-3.195-3.7,2.034,2.034,0,0,0-2.828,0,46.6,46.6,0,0,1-9.208,7.159q-1.218.725-2.476,1.377c-.793.41-1.69.723-2.437,1.21a2.853,2.853,0,0,0-.451,4.375,22.9,22.9,0,0,0,3.793,2.519c1.984,1.253,3.972,2.5,5.936,3.788.969.635,1.936,1.276,2.878,1.951.209.149.414.3.621.454.249.181-.272-.245.156.124a5.44,5.44,0,0,1,.612.573,2.018,2.018,0,0,0,2.829,0,2.043,2.043,0,0,0,0-2.829,15.168,15.168,0,0,0-3.062-2.38c-1.518-1.042-3.068-2.037-4.62-3.026-1.494-.953-3-1.893-4.492-2.843-.518-.328-1.036-.656-1.546-.995-.17-.113-.335-.246-.511-.349-.153-.089-.306-.333.234.184-.232-.222.359.439.351.546l-.273,1.01q-.459.378-.007.117.232-.1.462-.214.467-.218.927-.447,1.02-.508,2.013-1.066,1.968-1.1,3.829-2.386a51.014,51.014,0,0,0,7.27-6.024h-2.828a23.147,23.147,0,0,1,4.6,6.233l-.2-1.542a60.091,60.091,0,0,1-2.566,7.1c-.946,2.376-1.7,4.283-2.719,6.486a2.057,2.057,0,0,0,.717,2.736A2.017,2.017,0,0,0,235.317,113.654Z"/><path class="b" d="M205.086,111.635c-1.019-2.2-1.773-4.111-2.719-6.486a60.275,60.275,0,0,1-2.567-7.1l-.2,1.542a23.147,23.147,0,0,1,4.6-6.233H201.37a51.014,51.014,0,0,0,7.27,6.024c1.24.852,2.517,1.651,3.829,2.386q.918.514,1.858.989.462.231.927.452.308.146.616.286.453.261-.006-.117l-.273-1.01c-.008-.107.583-.768.351-.546.038-.036.521-.351.234-.184-.161.094-.311.216-.467.319-.524.35-1.058.687-1.59,1.025-1.5.95-3,1.89-4.492,2.843-1.552.989-3.1,1.984-4.62,3.026a15.176,15.176,0,0,0-3.062,2.38,2.054,2.054,0,0,0,0,2.829,2.017,2.017,0,0,0,2.828,0,4.26,4.26,0,0,1,.484-.466c.119-.1.243-.2.366-.3-.393.315.075-.051.217-.155.788-.577,1.6-1.122,2.41-1.662,1.967-1.307,3.966-2.567,5.964-3.828,1.339-.845,2.722-1.65,4.007-2.578a2.925,2.925,0,0,0,1.1-3.715,3.62,3.62,0,0,0-1.891-1.531q-1.336-.627-2.63-1.341a46.875,46.875,0,0,1-10.6-7.957,2.036,2.036,0,0,0-2.828,0,24.736,24.736,0,0,0-3.195,3.7,13.735,13.735,0,0,0-2.232,3.815,4.967,4.967,0,0,0,.5,2.676c.292.858.606,1.708.927,2.555,1.32,3.49,2.694,6.989,4.264,10.375a2.016,2.016,0,0,0,2.737.717A2.046,2.046,0,0,0,205.086,111.635Z"/><path class="f" d="M202.848,88.656l.527-.845a27.7,27.7,0,0,1-7.568-6.489A30.986,30.986,0,0,1,189.9,69.793l-1.164-.177a7.691,7.691,0,0,1-3.571-1.609,9.436,9.436,0,0,1-1.156-1.14,15.187,15.187,0,0,0-1.5,4.994,24.821,24.821,0,0,0-.172,3.383q.006.345.026.691c.134,2.466.71,4.979.832,7.436.124,2.677-.573,5.313-3.127,6.18-.1.034-.121.361-.118.444a1.162,1.162,0,0,0,.2.572,3.95,3.95,0,0,0,1.309,1.148,18.168,18.168,0,0,0,11.867,2.075C197.609,93.14,201.238,91.072,202.848,88.656Z"/><path class="f" d="M253.616,30.882c-.115-.672-.233-1.294-.347-1.853C250.1,13.5,234.459,1.17,218.055,2.071c-16.4-.9-32.047,11.427-35.215,26.958a44.163,44.163,0,0,0,.025,14.7l1.571,6.151a4.523,4.523,0,0,1,3.252,1.1c6.483-4.5,17.48-12.309,23.175-17.206-.469,2.906-2.133,7.85-.037,7.342,8.754-2.027,17.143-6.114,22.216-12.491A61.464,61.464,0,0,0,237.176,39.7c1.837,3.146,7.16,10.223,11.635,11.281a4.505,4.505,0,0,1,4.212-.942C255.3,44.761,254.534,36.235,253.616,30.882Z"/><path class="b" d="M184.776,43.33a37.62,37.62,0,0,1-.305-11.812,27.749,27.749,0,0,1,3.8-11.031,33.977,33.977,0,0,1,18.846-15c4.107-1.3,8.121-1.426,12.384-1.459a31.112,31.112,0,0,1,12.33,2.492A34.024,34.024,0,0,1,249.225,23.11a37.6,37.6,0,0,1,3.015,12.37c.459,4.6.668,9.62-1.123,13.977a2.013,2.013,0,0,0,1.4,2.46,2.052,2.052,0,0,0,2.461-1.4c1.755-4.27,1.735-9.248,1.379-13.778a47.464,47.464,0,0,0-2.4-12.6A37.394,37.394,0,0,0,236.108,4.135,36.626,36.626,0,0,0,222.728.166a62.662,62.662,0,0,0-6.839-.138,34.973,34.973,0,0,0-6.915.818A38.077,38.077,0,0,0,186.435,15.97a32.47,32.47,0,0,0-5.706,13.559,40.961,40.961,0,0,0,.19,14.864c.56,2.512,4.417,1.449,3.857-1.063Z"/><path class="b" d="M231.243,29.615c1.413,4.817,3,9.665,5.97,13.763,2.719,3.751,6.359,8.321,11.066,9.533,2.494.642,3.558-3.215,1.063-3.857a11.407,11.407,0,0,1-4.748-3.135,35.51,35.51,0,0,1-4.235-4.99c-2.618-3.71-3.991-8.054-5.259-12.377-.722-2.465-4.584-1.416-3.857,1.063Z"/><path class="b" d="M231.716,27.1a32.876,32.876,0,0,1-13.792,9.729q-2.093.828-4.252,1.467-1.084.323-2.179.6c-.2.05-1.1.379-1.2.29.164.157,2.367.005,1.506.83.031-.029,0,.133-.008-.149a5.83,5.83,0,0,1,.04-.735c.051-.456.151-.913.243-1.364.235-1.155.518-2.3.715-3.464a2.018,2.018,0,0,0-3.343-1.945c-7.166,6.137-15.026,11.519-22.77,16.893-2.1,1.458-.1,4.927,2.019,3.454,8.023-5.568,16.156-11.161,23.58-17.519l-3.343-1.946c-.411,2.426-1.716,5.466-.968,7.921a2.769,2.769,0,0,0,3.392,1.882,39.674,39.674,0,0,0,5.331-1.515c6.758-2.3,13.342-5.95,17.855-11.6a2.06,2.06,0,0,0,0-2.828,2.013,2.013,0,0,0-2.828,0Z"/><path class="b" d="M182.317,65.779A20.979,20.979,0,0,0,180.5,77.5c.231,2.071.669,4.135.709,6.224.023,1.195-.077,2.832-1.139,3.617-.645.477-1.367.541-1.8,1.313a2.906,2.906,0,0,0,.022,2.652c.791,1.556,2.513,2.431,4.051,3.093a21.044,21.044,0,0,0,11.949,1.254c3.952-.692,7.949-2.632,10.287-5.983,1.476-2.115-1.99-4.117-3.454-2.018-1.938,2.777-5.961,4.041-9.172,4.3a17.56,17.56,0,0,1-5.88-.477,13.758,13.758,0,0,1-2.376-.828,10.991,10.991,0,0,1-1.218-.658,3.2,3.2,0,0,1-.45-.3q-.511-.547-.228.874l-1.2.919c4.331-1.643,4.907-6.033,4.41-10.131-.552-4.561-1.387-9.241.755-13.548,1.143-2.3-2.306-4.327-3.453-2.019Z"/><path class="b" d="M250.225,52.4a2.475,2.475,0,0,1,3.521.463,5.177,5.177,0,0,1,.5,2.619,15.392,15.392,0,0,1-.218,3.172c-.688,3.77-2.607,8.285-6.8,9.036a2.017,2.017,0,0,0-1.4,2.461,2.044,2.044,0,0,0,2.46,1.4c6.375-1.142,9.415-8.341,9.9-14.119.246-2.964.009-6.353-2.556-8.274a6.59,6.59,0,0,0-8.235.417,2.016,2.016,0,0,0,0,2.829,2.045,2.045,0,0,0,2.829,0Z"/><path class="b" d="M245.714,66.225a17.234,17.234,0,0,1-1,4.643c-.09.274-.194.545-.275.822-.037.125-.2.477.025-.039-.141.325-.293.645-.453.962a39.068,39.068,0,0,1-3.366,5.412c-2.936,4.026-6.921,8.291-11.949,9.471-2.506.587-1.445,4.445,1.063,3.857,6-1.407,10.648-6.309,14.175-11.085,3.046-4.125,5.569-8.8,5.782-14.043.1-2.574-3.9-2.569-4,0Z"/><path class="b" d="M189.1,49.568a6.591,6.591,0,0,0-8.235-.417c-2.566,1.916-2.8,5.314-2.555,8.274.479,5.778,3.52,12.977,9.894,14.119a2.057,2.057,0,0,0,2.461-1.4,2.019,2.019,0,0,0-1.4-2.461c-4.19-.751-6.109-5.267-6.8-9.036a15.33,15.33,0,0,1-.221-3,5.96,5.96,0,0,1,.427-2.675,2.46,2.46,0,0,1,3.595-.584,2.055,2.055,0,0,0,2.828,0,2.016,2.016,0,0,0,0-2.829Z"/><path class="b" d="M186.993,65.955A35.4,35.4,0,0,0,194.531,82.9c4.242,5.022,9.858,8.653,16.472,9.367a2.012,2.012,0,0,0,2-2,2.046,2.046,0,0,0-2-2c-5.669-.612-10.4-4.242-13.922-8.53-3.469-4.23-5.3-9.519-6.231-14.845a2.016,2.016,0,0,0-2.46-1.4,2.044,2.044,0,0,0-1.4,2.46Z"/><path class="b" d="M212.623,75.979a12.706,12.706,0,0,0,6.12,1.426,10.056,10.056,0,0,0,6.27-1.888,2,2,0,0,0,0-2.829,2.062,2.062,0,0,0-2.828,0c.685-.534-.065.013-.284.129-.17.089-.635.229-.021.029-.169.055-.332.128-.5.182-.213.069-.43.127-.649.178-.151.035-.653.043-.755.143.109-.106.364-.042-.008-.005-.138.013-.276.025-.414.034-.332.021-.665.029-1,.027-.3,0-.6-.011-.893-.032-.137-.009-.273-.02-.409-.034-.078-.007-.156-.016-.234-.025q-.232-.028.161.021a2.183,2.183,0,0,1-.672-.125q-.322-.072-.639-.166c-.184-.055-.363-.121-.544-.183-.462-.158.4.194-.016,0-.225-.106-.446-.216-.666-.332a2,2,0,1,0-2.019,3.453Z"/><path class="b" d="M217.512,61.84a27.711,27.711,0,0,1,.649,2.972l-.071-.532a1.824,1.824,0,0,1,.011.411l.071-.532a.9.9,0,0,1-.045.184l.2-.477a.752.752,0,0,1-.065.118l.312-.4a.582.582,0,0,1-.1.095l.4-.312a1.881,1.881,0,0,1-.235.124l.478-.2a1.734,1.734,0,0,1-.4.115l.531-.071a1.543,1.543,0,0,1-.372,0l.532.072c-.141-.02-.279-.054-.419-.073a1.526,1.526,0,0,0-.8-.036,1.477,1.477,0,0,0-.743.238,2,2,0,0,0-.718,2.736,1.915,1.915,0,0,0,1.2.919c.361.049.713.14,1.081.156a3.54,3.54,0,0,0,1.648-.4,2.481,2.481,0,0,0,1.344-1.623,3.868,3.868,0,0,0-.014-1.7c-.162-.957-.383-1.906-.629-2.846a2.068,2.068,0,0,0-.919-1.2,2,2,0,0,0-2.737.718,2.1,2.1,0,0,0-.2,1.541Z"/><path class="b" d="M202.255,53.3c-.5,1.613-.173,5.324,2.883,5.639,4.039-.024,4.254-4.51,2.894-6.619C206.919,50.589,203.646,49.871,202.255,53.3Z"/><path class="b" d="M234.6,53.3c.5,1.613.173,5.324-2.883,5.639-4.039-.024-4.254-4.51-2.9-6.619C229.934,50.589,233.207,49.871,234.6,53.3Z"/></svg>